<?xml version="1.0" encoding="utf-8"?>
<!-- Generator: Adobe Illustrator 16.0.0, SVG Export Plug-In . SVG Version: 6.00 Build 0)  -->
<!DOCTYPE svg PUBLIC "-//W3C//DTD SVG 1.1//EN" "http://www.w3.org/Graphics/SVG/1.1/DTD/svg11.dtd">
<svg version="1.1" id="레이어_1" xmlns="http://www.w3.org/2000/svg" xmlns:xlink="http://www.w3.org/1999/xlink" x="0px"
	 y="0px" width="527px" height="1209px" viewBox="0 0 527 1209" enable-background="new 0 0 527 1209" xml:space="preserve">
<defs>
	<filter id="Adobe_OpacityMaskFilter" filterUnits="userSpaceOnUse" x="-498.943" y="133" width="310" height="320">
		<feColorMatrix  type="matrix" values="1 0 0 0 0  0 1 0 0 0  0 0 1 0 0  0 0 0 1 0"/>
	</filter>
</defs>
<mask maskUnits="userSpaceOnUse" x="-498.943" y="133" width="310" height="320" id="mask0_134_78">
	<rect x="-497.943" y="131" fill="#C4C4C4" filter="url(#Adobe_OpacityMaskFilter)" width="310" height="177"/>
</mask>
<g mask="url(#mask0_134_78)">
	<circle fill="none" stroke="#AD8BD6" stroke-width="10" cx="-343.943" cy="308" r="110"/>
	<circle fill="none" stroke="#86DBFE" stroke-width="10" cx="-343.943" cy="308" r="120"/>
	<circle fill="none" stroke="#51F1D2" stroke-width="10" cx="-343.943" cy="308" r="130"/>
	<circle fill="none" stroke="#FDFAD4" stroke-width="10" cx="-343.943" cy="298" r="130"/>
	<circle fill="none" stroke="#FB91C9" stroke-width="10" cx="-343.943" cy="298" r="140"/>
	<circle fill="none" stroke="#AD8BD6" stroke-width="10" cx="-343.943" cy="298" r="150"/>
	<path fill="#FEFACC" stroke="#AD8BD6" stroke-width="6" d="M-241.153,166.115l1.005-13.918c0.272-3.773-3.954-6.18-7.061-4.017
		l-11.451,7.975l-12.926-5.257c-3.506-1.426-7.101,1.854-6.002,5.476l4.046,13.354l-8.994,10.67
		c-2.438,2.896-0.435,7.323,3.352,7.399l13.951,0.276l7.367,11.853c1.999,3.215,6.831,2.676,8.073-0.9l4.577-13.182l13.547-3.346
		c3.674-0.907,4.653-5.67,1.638-7.956L-241.153,166.115z"/>
	<circle fill="#FFFFFF" stroke="#AD8BD6" stroke-width="6" cx="-326.943" cy="146" r="10"/>
	<circle fill="#FFFFFF" stroke="#AD8BD6" stroke-width="6" cx="-390.943" cy="209" r="9"/>
</g>
<path fill="none" d="M0,748c0-33.689,27.311-61,61-61h198h204.88c34.857,0,63.12,28.26,63.12,63.117v314.763
	c0,34.857-28.263,63.12-63.12,63.12H259H61c-33.689,0-61-27.313-61-61V748z M470,947v-36.5c0-56.06-45.443-101.5-101.5-101.5
	C312.443,809,267,854.443,267,910.5V947c0,14.909,12.088,27,27,27h149C457.909,974,470,961.909,470,947z"/>
<defs>
	<filter id="Adobe_OpacityMaskFilter_1_" filterUnits="userSpaceOnUse" x="-12" y="675" width="551" height="465">
		<feColorMatrix  type="matrix" values="1 0 0 0 0  0 1 0 0 0  0 0 1 0 0  0 0 0 1 0"/>
	</filter>
</defs>
<mask maskUnits="userSpaceOnUse" x="-12" y="675" width="551" height="465" id="path-11-inside-1_134_78">
	<path fill="#FFFFFF" filter="url(#Adobe_OpacityMaskFilter_1_)" d="M0,748c0-33.689,27.311-61,61-61h198h204.88
		c34.857,0,63.12,28.26,63.12,63.117v314.763c0,34.857-28.263,63.12-63.12,63.12H259H61c-33.689,0-61-27.313-61-61V748z M470,947
		v-36.5c0-56.06-45.443-101.5-101.5-101.5C312.443,809,267,854.443,267,910.5V947c0,14.909,12.088,27,27,27h149
		C457.909,974,470,961.909,470,947z"/>
</mask>
<path mask="url(#path-11-inside-1_134_78)" fill="#092543" d="M61,675c-40.317,0-73,32.683-73,73h24c0-27.063,21.938-49,49-49V675z
	 M259,675H61v24h198V675z M463.88,675H259v24h204.88V675z M539,750.117C539,708.632,505.365,675,463.88,675v24
	c28.23,0,51.12,22.887,51.12,51.117H539z M539,1064.88V750.117h-24v314.763H539z M463.88,1140c41.485,0,75.12-33.633,75.12-75.12
	h-24c0,28.229-22.89,51.12-51.12,51.12V1140z M259,1140h204.88v-24H259V1140z M61,1140h198v-24H61V1140z M-12,1067
	c0,40.317,32.683,73,73,73v-24c-27.063,0-49-21.94-49-49H-12z M-12,748v319h24V748H-12z M458,910.5V947h24v-36.5H458z M368.5,821
	c49.429,0,89.5,40.068,89.5,89.5h24c0-62.687-50.816-113.5-113.5-113.5V821z M279,910.5c0-49.432,40.068-89.5,89.5-89.5v-24
	C305.816,797,255,847.816,255,910.5H279z M279,947v-36.5h-24V947H279z M294,962c-8.284,0-15-6.719-15-15h-24
	c0,21.536,17.461,39,39,39V962z M443,962H294v24h149V962z M458,947c0,8.281-6.719,15-15,15v24c21.536,0,39-17.464,39-39H458z"/>
<path fill="#092543" d="M64.773,1116c-10.254,0-19.888,4.907-25.904,13.22l-6.732,9.28l-7.91,11.5l-11.37,16.5l-5.933,9.5
	l-4.943,9.5l-1.481,4L0,1194v5.5l0.986,5.5l2.474,4h189.345h1.979h328.755l2.475-4l0.989-5.5v-5.5l-0.494-4.5l-1.483-4l-4.942-9.5
	l-5.935-9.5l-11.37-16.5l-7.91-11.5l-6.729-9.28c-6.021-8.313-15.652-13.22-25.907-13.22h-267.45h-1.977H64.773z"/>
<defs>
	<filter id="Adobe_OpacityMaskFilter_2_" filterUnits="userSpaceOnUse" x="-12" y="1104" width="551" height="117">
		<feColorMatrix  type="matrix" values="1 0 0 0 0  0 1 0 0 0  0 0 1 0 0  0 0 0 1 0"/>
	</filter>
</defs>
<mask maskUnits="userSpaceOnUse" x="-12" y="1104" width="551" height="117" id="path-13-inside-2_134_78">
	<path fill="#FFFFFF" filter="url(#Adobe_OpacityMaskFilter_2_)" d="M64.773,1116c-10.254,0-19.888,4.907-25.904,13.22l-6.732,9.28
		l-7.91,11.5l-11.37,16.5l-5.933,9.5l-4.943,9.5l-1.481,4L0,1194v5.5l0.986,5.5l2.474,4h189.345h1.979h328.755l2.475-4l0.989-5.5
		v-5.5l-0.494-4.5l-1.483-4l-4.942-9.5l-5.935-9.5l-11.37-16.5l-7.91-11.5l-6.729-9.28c-6.021-8.313-15.652-13.22-25.907-13.22
		h-267.45h-1.977H64.773z"/>
</mask>
<path mask="url(#path-13-inside-2_134_78)" fill="#092543" d="M38.866,1129.22l-9.718-7.05l0,0L38.866,1129.22z M32.134,1138.5
	l-9.715-7.041l-0.088,0.118l-0.084,0.12L32.134,1138.5z M24.224,1150l9.881,6.81l0.007-0.01L24.224,1150z M12.854,1166.5
	l-9.881-6.813l-0.154,0.22l-0.144,0.23L12.854,1166.5z M6.921,1176l-10.179-6.36l-0.249,0.399l-0.219,0.42L6.921,1176z
	 M1.978,1185.5l-10.646-5.541l-0.348,0.671l-0.261,0.697L1.978,1185.5z M0.494,1189.5l-11.252-4.173l-0.517,1.393l-0.162,1.47
	L0.494,1189.5z M0,1194l-11.931-1.313l-0.069,0.65v0.658H0V1194z M0,1199.5h-12v1.067l0.188,1.05L0,1199.5z M0.989,1205
	l-11.811,2.117l0.403,2.25l1.197,1.94L0.989,1205z M3.46,1209l-10.208,6.31l3.518,5.69h6.69V1209z M523.536,1209v12h6.691
	l3.518-5.69L523.536,1209z M526.011,1205l10.208,6.31l1.199-1.94l0.401-2.25L526.011,1205z M527,1199.5l11.811,2.117l0.189-1.05
	v-1.067H527z M527,1194h12v-0.66l-0.072-0.65L527,1194z M526.506,1189.5l11.928-1.313l-0.162-1.47l-0.515-1.393L526.506,1189.5z
	 M525.023,1185.5l11.251-4.173l-0.261-0.697l-0.347-0.671L525.023,1185.5z M520.076,1176l10.646-5.541l-0.218-0.422l-0.249-0.397
	L520.076,1176z M514.146,1166.5l10.179-6.36l-0.144-0.23l-0.154-0.22L514.146,1166.5z M502.776,1150l-9.887,6.8l0.006,0.01
	L502.776,1150z M494.865,1138.5l9.89-6.803l-0.085-0.12l-0.09-0.118L494.865,1138.5z M488.134,1129.22l-9.715,7.04l0,0
	L488.134,1129.22z M48.581,1136.26c3.762-5.19,9.78-8.26,16.189-8.26v-24c-14.1,0-27.345,6.76-35.622,18.17L48.581,1136.26z
	 M41.849,1145.537l6.732-9.277l-19.433-14.09l-6.729,9.287L41.849,1145.537z M34.112,1156.8l7.909-11.5l-19.771-13.603l-7.91,11.5
	L34.112,1156.8z M22.735,1173.31l11.37-16.5l-19.762-13.62l-11.37,16.5L22.735,1173.31z M17.1,1182.36l5.935-9.5l-20.357-12.72
	l-5.933,9.5L17.1,1182.36z M12.622,1191.037l4.941-9.5l-21.289-11.078l-4.942,9.5L12.622,1191.037z M11.746,1193.67l1.48-4
	l-22.503-8.343l-1.481,4L11.746,1193.67z M11.928,1195.31l0.494-4.5l-23.856-2.62l-0.494,4.5L11.928,1195.31z M12,1199.5v-5.5h-24
	v5.5H12z M12.799,1202.88l-0.988-5.5l-23.621,4.237l0.988,5.5L12.799,1202.88z M13.668,1202.69l-2.474-4l-20.416,12.62l2.474,4
	L13.668,1202.69z M192.805,1197H3.46v24h189.345V1197z M192.805,1221h1.977v-24h-1.977V1221z M194.781,1221h328.757v-24H194.781
	V1221z M533.745,1215.31l2.474-4l-20.416-12.62l-2.475,4L533.745,1215.31z M537.822,1207.117l0.989-5.5l-23.622-4.237l-0.988,5.5
	L537.822,1207.117z M539,1199.5v-5.5h-24v5.5H539z M538.928,1192.69l-0.494-4.5l-23.857,2.62l0.495,4.5L538.928,1192.69z
	 M537.757,1185.327l-1.483-4l-22.503,8.343l1.483,4L537.757,1185.327z M535.666,1179.959l-4.942-9.5l-21.29,11.078l4.944,9.5
	L535.666,1179.959z M530.257,1169.64l-5.935-9.5l-20.354,12.72l5.932,9.5L530.257,1169.64z M524.027,1159.69l-11.37-16.5
	l-19.762,13.62l11.37,16.5L524.027,1159.69z M512.66,1143.198l-7.907-11.5l-19.774,13.603l7.91,11.5L512.66,1143.198z
	 M504.578,1131.459l-6.729-9.289l-19.43,14.09l6.729,9.279L504.578,1131.459z M497.849,1122.17
	c-8.277-11.41-21.522-18.17-35.622-18.17v24c6.409,0,12.43,3.067,16.191,8.26L497.849,1122.17z M462.227,1104H194.781v24h267.445
	L462.227,1104L462.227,1104z M194.781,1104h-1.977v24h1.977V1104z M64.773,1128h128.032v-24H64.773V1128z"/>
<path fill="none" stroke="#092543" stroke-width="12" d="M482,259h6v-6v-35c0-24.304-19.699-44-44-44H84c-24.301,0-44,19.696-44,44
	v35v6h6H482z"/>
<path fill="#2058A8" fill-opacity="0.19" d="M61,253c-33.689,0-61,27.311-61,61v319c0,33.688,27.311,61,61,61h198h204.88
	C498.74,694,527,665.74,527,630.88V316.12c0-34.86-28.263-63.12-63.12-63.12H259H61z"/>
<defs>
	<filter id="Adobe_OpacityMaskFilter_3_" filterUnits="userSpaceOnUse" x="-12" y="241" width="551" height="465">
		<feColorMatrix  type="matrix" values="1 0 0 0 0  0 1 0 0 0  0 0 1 0 0  0 0 0 1 0"/>
	</filter>
</defs>
<mask maskUnits="userSpaceOnUse" x="-12" y="241" width="551" height="465" id="path-16-inside-3_134_78">
	<path fill="#FFFFFF" filter="url(#Adobe_OpacityMaskFilter_3_)" d="M61,253c-33.689,0-61,27.311-61,61v319
		c0,33.688,27.311,61,61,61h198h204.88C498.74,694,527,665.74,527,630.88V316.12c0-34.86-28.263-63.12-63.12-63.12H259H61z"/>
</mask>
<path mask="url(#path-16-inside-3_134_78)" fill="#092543" d="M12,314c0-27.063,21.938-49,49-49v-24c-40.317,0-73,32.683-73,73H12z
	 M12,633V314h-24v319H12z M61,682c-27.063,0-49-21.938-49-49h-24c0,40.314,32.683,73,73,73V682z M259,682H61v24h198V682z M259,706
	h204.88v-24H259V706z M463.88,706c41.485,0,75.12-33.635,75.12-75.12h-24c0,28.23-22.89,51.12-51.12,51.12V706z M539,630.88V316.12
	h-24v314.76H539z M539,316.12c0-41.488-33.635-75.12-75.12-75.12v24c28.23,0,51.12,22.887,51.12,51.12H539z M463.88,241H259v24
	h204.88V241z M61,265h198v-24H61V265z"/>
<path fill="#EF254C" d="M379.071,741.139l-6.01-12.594c-1.63-3.416-6.492-3.416-8.122,0l-6.01,12.594l-13.834,1.823
	c-3.753,0.492-5.255,5.117-2.511,7.726l10.118,9.607l-2.54,13.72c-0.688,3.722,3.244,6.58,6.571,4.772L369,772.133l12.264,6.654
	c3.327,1.808,7.261-1.053,6.571-4.772l-2.54-13.72l10.117-9.607c2.745-2.604,1.243-7.229-2.51-7.726L379.071,741.139z"/>
<circle fill="#EB517E" cx="418" cy="766" r="10"/>
<circle fill="#EB517E" cx="319" cy="766" r="10"/>
<circle fill="#EB517E" cx="290.5" cy="784.5" r="6.5"/>
<circle fill="#EB517E" cx="447.5" cy="784.5" r="6.5"/>
<path fill="#EB517E" d="M242.5,1031h252c2.482,0,4.5,2.015,4.5,4.5l0,0c0,2.482-2.018,4.5-4.5,4.5h-252c-2.485,0-4.5-2.018-4.5-4.5
	l0,0C238,1033.015,240.015,1031,242.5,1031z"/>
<path fill="#EF254C" d="M244.5,1048h248c3.59,0,6.5,2.908,6.5,6.5l0,0c0,3.59-2.91,6.5-6.5,6.5h-248c-3.59,0-6.5-2.91-6.5-6.5l0,0
	C238,1050.908,240.91,1048,244.5,1048z"/>
<path fill="#FFFFFF" d="M57.5,278h334c4.142,0,7.5,3.355,7.5,7.5l0,0c0,4.142-3.358,7.5-7.5,7.5h-334c-4.145,0-7.5-3.358-7.5-7.5
	l0,0C50,281.358,53.358,278,57.5,278z"/>
<path fill="none" stroke="#FFFFFF" stroke-width="12" stroke-linecap="round" d="M437.5,285c19.5-1.333,58.5,2.5,58.5,28.5"/>
<path fill="#FFFFFF" stroke="#092543" stroke-width="12" d="M83,967h101c9.938,0,18,8.059,18,18v31c0,9.938-8.062,18-18,18H83
	c-9.941,0-18-8.062-18-18v-31C65,975.059,73.059,967,83,967z"/>
<circle fill="#C4C4C4" stroke="#040F19" stroke-width="12" cx="134.5" cy="875.5" r="62.5"/>
<circle fill="#2C4C84" stroke="#092543" stroke-width="12" cx="132.5" cy="866.5" r="62.5"/>
<path fill="none" stroke="#FFFFFF" stroke-width="12" stroke-linecap="round" d="M35.5,557v46.5c1.166,18.666,10.6,56,39,56
	c28.397,0,51.167,0,59,0"/>
<g>
	<path fill="#2C4C84" d="M443,984H294c-10.482,0-19.992-4.146-27-10.873V984c0,14.907,12.088,27,27,27h149c14.909,0,27-12.093,27-27
		v-10.875C462.99,979.856,453.483,984,443,984z"/>
	<path fill="#2C4C84" d="M443,1011H294c-14.912,0-27-12.093-27-27v-10.873c7.008,6.729,16.518,10.873,27,10.873h149
		c10.481,0,19.99-4.146,27-10.875V984C470,998.907,457.909,1011,443,1011z"/>
</g>
<path fill="none" d="M470,942v-36.5c0-4.616-0.311-9.161-0.905-13.614C477.338,907.614,482,925.512,482,944.5V981
	c0,21.537-17.464,39-39,39H294c-21.539,0-39-17.463-39-39v-36.5c0-18.988,4.662-36.889,12.902-52.614
	c-0.597,4.453-0.902,8.998-0.902,13.614V942c0,14.908,12.088,27,27,27h149C457.909,969,470,956.908,470,942z"/>
<defs>
	<filter id="Adobe_OpacityMaskFilter_4_" filterUnits="userSpaceOnUse" x="243" y="886.314" width="251" height="145.687">
		<feColorMatrix  type="matrix" values="1 0 0 0 0  0 1 0 0 0  0 0 1 0 0  0 0 0 1 0"/>
	</filter>
</defs>
<mask maskUnits="userSpaceOnUse" x="243" y="886.314" width="251" height="145.687" id="path-31-inside-4_134_78">
	<path fill="#FFFFFF" filter="url(#Adobe_OpacityMaskFilter_4_)" d="M470,942v-36.5c0-4.616-0.311-9.161-0.905-13.614
		C477.338,907.614,482,925.512,482,944.5V981c0,21.537-17.464,39-39,39H294c-21.539,0-39-17.463-39-39v-36.5
		c0-18.988,4.662-36.889,12.902-52.614c-0.597,4.453-0.902,8.998-0.902,13.614V942c0,14.908,12.088,27,27,27h149
		C457.909,969,470,956.908,470,942z"/>
</mask>
<path mask="url(#path-31-inside-4_134_78)" fill="#092543" d="M469.095,891.886l10.629-5.57l-22.523,7.165L469.095,891.886z
	 M267.905,891.886l11.896,1.595l-22.523-7.165L267.905,891.886z M458,905.5V942h24v-36.5H458z M457.198,893.481
	c0.527,3.926,0.802,7.938,0.802,12.021h24c0-5.151-0.347-10.229-1.014-15.209L457.198,893.481z M458.466,897.454
	C465.827,911.507,470,927.496,470,944.5h24c0-20.977-5.155-40.779-14.276-58.187L458.466,897.454z M470,944.5V981h24v-36.5H470z
	 M470,981c0,14.907-12.091,27-27,27v24c28.166,0,51-22.83,51-51H470z M443,1008H294v24h149V1008z M294,1008
	c-14.912,0-27-12.093-27-27h-24c0,28.17,22.833,51,51,51V1008z M267,981v-36.5h-24V981H267z M267,944.5
	c0-17.004,4.17-32.993,11.534-47.046l-21.261-11.141C248.155,903.721,243,923.526,243,944.5H267z M279,905.5
	c0-4.082,0.271-8.096,0.799-12.021l-23.788-3.189c-0.667,4.98-1.011,10.06-1.011,15.209L279,905.5L279,905.5z M279,942v-36.5h-24
	V942H279z M294,957c-8.284,0-15-6.719-15-15h-24c0,21.536,17.461,39,39,39V957z M443,957H294v24h149V957z M458,942
	c0,8.281-6.719,15-15,15v24c21.536,0,39-17.464,39-39H458z"/>
<image overflow="visible" width="1325" height="390" xlink:href="../bobple_logo.png"  transform="matrix(0.1909 0 0 0.1909 136.9993 179.2664)">
</image>
</svg>
